<?xml version="1.0" encoding="utf-8" standalone="no"?>
<!DOCTYPE svg PUBLIC "-//W3C//DTD SVG 1.1//EN"
  "http://www.w3.org/Graphics/SVG/1.1/DTD/svg11.dtd">
<!-- Created with matplotlib (http://matplotlib.org/) -->
<svg height="693pt" version="1.1" viewBox="0 0 1141 693" width="1141pt" xmlns="http://www.w3.org/2000/svg" xmlns:xlink="http://www.w3.org/1999/xlink">
 <defs>
  <style type="text/css">
*{stroke-linecap:square;stroke-linejoin:round;}
  </style>
 </defs>
 <g id="figure_1">
  <g id="patch_1">
   <path d="
M0 693
L1141.2 693
L1141.2 0
L0 0
z
" style="fill:#ffffff;"/>
  </g>
  <g id="axes_1">
   <g id="patch_2">
    <path d="
M34.5381 667.04
L1119.77 667.04
L1119.77 17.46
L34.5381 17.46
z
" style="fill:#ffffff;"/>
   </g>
   <g id="line2d_1">
    <path clip-path="url(#ped09f2dd41)" d="
M27.4971 392.576
L41.6648 400.699
L71.8853 412.311
L86.4192 426.683
L101.114 440.847
L115.213 451.73
L144.651 462.874
L159.293 475.215
L173.99 483.755
L188.718 488.598
L218.758 491.462
L233.412 489.014
L247.72 478.808
L262.483 465.79
L292.283 449.908
L306.914 437.514
L321.62 434.182
L335.741 434.546
L365.763 453.501
L380.433 490.837
L395.136 534.942
L409.288 572.07
L439.279 608.625
L453.952 625.913
L468.614 626.538
L483.012 618.936
L512.793 612.947
L527.514 608.052
L542.239 607.219
L556.338 606.803
L586.36 605.657
L601.066 591.597
L615.708 564.52
L630.05 526.454
L659.891 480.839
L674.496 419.289
L689.271 359.457
L703.379 312.123
L733.374 261.925
L748.1 202.823
L762.791 156.791
L777.093 128.775
L806.869 100.76
L821.582 95.2927
L836.3 106.853
L850.417 122.891
L880.499 134.139
L895.085 151.115
L909.824 162.362
L924.152 177.567
L953.984 191.835
L968.653 217.82
L983.341 238.076
L997.685 264.112
L1027.54 287.962
L1042.17 311.498
L1056.87 321.496
L1071.23 333.421
L1101.14 339.566
L1115.7 348.418
L1142.2 357.143" style="fill:none;stroke:#ff0000;"/>
   </g>
   <g id="line2d_2">
    <path clip-path="url(#ped09f2dd41)" d="
M26.7745 407.726
L41.4838 416.578
L70.972 430.898
L85.6287 446.26
L100.34 462.142
L115.035 462.142
L144.457 472.296
L159.114 492.604
L173.828 488.959
L188.543 486.356
L217.975 476.462
L232.657 460.059
L247.374 441.573
L262.091 423.869
L291.506 406.945
L306.167 414.495
L320.87 443.396
L335.564 443.396
L365.01 518.641
L379.691 593.625
L394.403 635.023
L409.121 629.035
L438.548 626.171
L453.2 605.081
L467.922 596.75
L482.636 597.01
L512.067 599.093
L526.742 601.697
L541.457 600.916
L556.153 594.667
L585.592 591.282
L600.284 528.795
L614.967 466.308
L629.683 410.59
L659.106 366.589
L673.811 283.533
L688.518 229.637
L703.215 229.637
L732.635 159.6
L747.357 71.0761
L762.05 53.3714
L776.718 89.5619
L806.149 89.5619
L820.85 132.262
L835.545 128.877
L850.24 133.563
L879.704 145.8
L894.342 174.44
L909.06 188.5
L923.778 204.903
L953.2 204.903
L967.892 275.722
L982.619 275.722
L997.318 318.682
L1026.73 324.149
L1041.4 322.587
L1056.13 325.712
L1070.87 335.345
L1100.27 349.405
L1114.95 368.411
L1142.2 375.375" style="fill:none;stroke:#0000ff;"/>
   </g>
   <g id="matplotlib.axis_1">
    <g id="xtick_1">
     <g id="line2d_3">
      <path clip-path="url(#ped09f2dd41)" d="
M200.024 667.04
L200.024 17.46" style="fill:none;stroke:#808080;stroke-dasharray:1.000000,3.000000;stroke-dashoffset:0.0;stroke-linecap:butt;stroke-width:0.5;"/>
     </g>
     <g id="line2d_4">
      <defs>
       <path d="
M0 0
L0 -4" id="mcb557df647" style="stroke:#000000;stroke-linecap:butt;stroke-width:0.5;"/>
      </defs>
      <g>
       <use style="stroke:#000000;stroke-linecap:butt;stroke-width:0.5;" x="200.024423151" xlink:href="#mcb557df647" y="667.04"/>
      </g>
     </g>
     <g id="line2d_5">
      <defs>
       <path d="
M0 0
L0 4" id="mdad270ee8e" style="stroke:#000000;stroke-linecap:butt;stroke-width:0.5;"/>
      </defs>
      <g>
       <use style="stroke:#000000;stroke-linecap:butt;stroke-width:0.5;" x="200.024423151" xlink:href="#mdad270ee8e" y="17.46"/>
      </g>
     </g>
     <g id="text_1">
      <!-- 43.0 -->
      <defs>
       <path d="
M31.7812 66.4062
Q24.1719 66.4062 20.3281 58.9062
Q16.5 51.4219 16.5 36.375
Q16.5 21.3906 20.3281 13.8906
Q24.1719 6.39062 31.7812 6.39062
Q39.4531 6.39062 43.2812 13.8906
Q47.125 21.3906 47.125 36.375
Q47.125 51.4219 43.2812 58.9062
Q39.4531 66.4062 31.7812 66.4062
M31.7812 74.2188
Q44.0469 74.2188 50.5156 64.5156
Q56.9844 54.8281 56.9844 36.375
Q56.9844 17.9688 50.5156 8.26562
Q44.0469 -1.42188 31.7812 -1.42188
Q19.5312 -1.42188 13.0625 8.26562
Q6.59375 17.9688 6.59375 36.375
Q6.59375 54.8281 13.0625 64.5156
Q19.5312 74.2188 31.7812 74.2188" id="DejaVuSans-30"/>
       <path d="
M40.5781 39.3125
Q47.6562 37.7969 51.625 33
Q55.6094 28.2188 55.6094 21.1875
Q55.6094 10.4062 48.1875 4.48438
Q40.7656 -1.42188 27.0938 -1.42188
Q22.5156 -1.42188 17.6562 -0.515625
Q12.7969 0.390625 7.625 2.20312
L7.625 11.7188
Q11.7188 9.32812 16.5938 8.10938
Q21.4844 6.89062 26.8125 6.89062
Q36.0781 6.89062 40.9375 10.5469
Q45.7969 14.2031 45.7969 21.1875
Q45.7969 27.6406 41.2812 31.2656
Q36.7656 34.9062 28.7188 34.9062
L20.2188 34.9062
L20.2188 43.0156
L29.1094 43.0156
Q36.375 43.0156 40.2344 45.9219
Q44.0938 48.8281 44.0938 54.2969
Q44.0938 59.9062 40.1094 62.9062
Q36.1406 65.9219 28.7188 65.9219
Q24.6562 65.9219 20.0156 65.0312
Q15.375 64.1562 9.8125 62.3125
L9.8125 71.0938
Q15.4375 72.6562 20.3438 73.4375
Q25.25 74.2188 29.5938 74.2188
Q40.8281 74.2188 47.3594 69.1094
Q53.9062 64.0156 53.9062 55.3281
Q53.9062 49.2656 50.4375 45.0938
Q46.9688 40.9219 40.5781 39.3125" id="DejaVuSans-33"/>
       <path d="
M37.7969 64.3125
L12.8906 25.3906
L37.7969 25.3906
z

M35.2031 72.9062
L47.6094 72.9062
L47.6094 25.3906
L58.0156 25.3906
L58.0156 17.1875
L47.6094 17.1875
L47.6094 0
L37.7969 0
L37.7969 17.1875
L4.89062 17.1875
L4.89062 26.7031
z
" id="DejaVuSans-34"/>
       <path d="
M10.6875 12.4062
L21 12.4062
L21 0
L10.6875 0
z
" id="DejaVuSans-2e"/>
      </defs>
      <g transform="translate(187.356923151 679.94625)scale(0.12 -0.12)">
       <use xlink:href="#DejaVuSans-34"/>
       <use x="63.623046875" xlink:href="#DejaVuSans-33"/>
       <use x="127.24609375" xlink:href="#DejaVuSans-2e"/>
       <use x="159.033203125" xlink:href="#DejaVuSans-30"/>
      </g>
     </g>
    </g>
    <g id="xtick_2">
     <g id="line2d_6">
      <path clip-path="url(#ped09f2dd41)" d="
M383.832 667.04
L383.832 17.46" style="fill:none;stroke:#808080;stroke-dasharray:1.000000,3.000000;stroke-dashoffset:0.0;stroke-linecap:butt;stroke-width:0.5;"/>
     </g>
     <g id="line2d_7">
      <g>
       <use style="stroke:#000000;stroke-linecap:butt;stroke-width:0.5;" x="383.832423669" xlink:href="#mcb557df647" y="667.04"/>
      </g>
     </g>
     <g id="line2d_8">
      <g>
       <use style="stroke:#000000;stroke-linecap:butt;stroke-width:0.5;" x="383.832423669" xlink:href="#mdad270ee8e" y="17.46"/>
      </g>
     </g>
     <g id="text_2">
      <!-- 43.1 -->
      <defs>
       <path d="
M12.4062 8.29688
L28.5156 8.29688
L28.5156 63.9219
L10.9844 60.4062
L10.9844 69.3906
L28.4219 72.9062
L38.2812 72.9062
L38.2812 8.29688
L54.3906 8.29688
L54.3906 0
L12.4062 0
z
" id="DejaVuSans-31"/>
      </defs>
      <g transform="translate(371.320548669 679.94625)scale(0.12 -0.12)">
       <use xlink:href="#DejaVuSans-34"/>
       <use x="63.623046875" xlink:href="#DejaVuSans-33"/>
       <use x="127.24609375" xlink:href="#DejaVuSans-2e"/>
       <use x="159.033203125" xlink:href="#DejaVuSans-31"/>
      </g>
     </g>
    </g>
    <g id="xtick_3">
     <g id="line2d_9">
      <path clip-path="url(#ped09f2dd41)" d="
M567.64 667.04
L567.64 17.46" style="fill:none;stroke:#808080;stroke-dasharray:1.000000,3.000000;stroke-dashoffset:0.0;stroke-linecap:butt;stroke-width:0.5;"/>
     </g>
     <g id="line2d_10">
      <g>
       <use style="stroke:#000000;stroke-linecap:butt;stroke-width:0.5;" x="567.640424187" xlink:href="#mcb557df647" y="667.04"/>
      </g>
     </g>
     <g id="line2d_11">
      <g>
       <use style="stroke:#000000;stroke-linecap:butt;stroke-width:0.5;" x="567.640424187" xlink:href="#mdad270ee8e" y="17.46"/>
      </g>
     </g>
     <g id="text_3">
      <!-- 43.2 -->
      <defs>
       <path d="
M19.1875 8.29688
L53.6094 8.29688
L53.6094 0
L7.32812 0
L7.32812 8.29688
Q12.9375 14.1094 22.625 23.8906
Q32.3281 33.6875 34.8125 36.5312
Q39.5469 41.8438 41.4219 45.5312
Q43.3125 49.2188 43.3125 52.7812
Q43.3125 58.5938 39.2344 62.25
Q35.1562 65.9219 28.6094 65.9219
Q23.9688 65.9219 18.8125 64.3125
Q13.6719 62.7031 7.8125 59.4219
L7.8125 69.3906
Q13.7656 71.7812 18.9375 73
Q24.125 74.2188 28.4219 74.2188
Q39.75 74.2188 46.4844 68.5469
Q53.2188 62.8906 53.2188 53.4219
Q53.2188 48.9219 51.5312 44.8906
Q49.8594 40.875 45.4062 35.4062
Q44.1875 33.9844 37.6406 27.2188
Q31.1094 20.4531 19.1875 8.29688" id="DejaVuSans-32"/>
      </defs>
      <g transform="translate(555.175424187 679.94625)scale(0.12 -0.12)">
       <use xlink:href="#DejaVuSans-34"/>
       <use x="63.623046875" xlink:href="#DejaVuSans-33"/>
       <use x="127.24609375" xlink:href="#DejaVuSans-2e"/>
       <use x="159.033203125" xlink:href="#DejaVuSans-32"/>
      </g>
     </g>
    </g>
    <g id="xtick_4">
     <g id="line2d_12">
      <path clip-path="url(#ped09f2dd41)" d="
M751.448 667.04
L751.448 17.46" style="fill:none;stroke:#808080;stroke-dasharray:1.000000,3.000000;stroke-dashoffset:0.0;stroke-linecap:butt;stroke-width:0.5;"/>
     </g>
     <g id="line2d_13">
      <g>
       <use style="stroke:#000000;stroke-linecap:butt;stroke-width:0.5;" x="751.448424705" xlink:href="#mcb557df647" y="667.04"/>
      </g>
     </g>
     <g id="line2d_14">
      <g>
       <use style="stroke:#000000;stroke-linecap:butt;stroke-width:0.5;" x="751.448424705" xlink:href="#mdad270ee8e" y="17.46"/>
      </g>
     </g>
     <g id="text_4">
      <!-- 43.3 -->
      <g transform="translate(738.863424705 679.94625)scale(0.12 -0.12)">
       <use xlink:href="#DejaVuSans-34"/>
       <use x="63.623046875" xlink:href="#DejaVuSans-33"/>
       <use x="127.24609375" xlink:href="#DejaVuSans-2e"/>
       <use x="159.033203125" xlink:href="#DejaVuSans-33"/>
      </g>
     </g>
    </g>
    <g id="xtick_5">
     <g id="line2d_15">
      <path clip-path="url(#ped09f2dd41)" d="
M935.256 667.04
L935.256 17.46" style="fill:none;stroke:#808080;stroke-dasharray:1.000000,3.000000;stroke-dashoffset:0.0;stroke-linecap:butt;stroke-width:0.5;"/>
     </g>
     <g id="line2d_16">
      <g>
       <use style="stroke:#000000;stroke-linecap:butt;stroke-width:0.5;" x="935.256425224" xlink:href="#mcb557df647" y="667.04"/>
      </g>
     </g>
     <g id="line2d_17">
      <g>
       <use style="stroke:#000000;stroke-linecap:butt;stroke-width:0.5;" x="935.256425224" xlink:href="#mdad270ee8e" y="17.46"/>
      </g>
     </g>
     <g id="text_5">
      <!-- 43.4 -->
      <g transform="translate(922.527050224 679.94625)scale(0.12 -0.12)">
       <use xlink:href="#DejaVuSans-34"/>
       <use x="63.623046875" xlink:href="#DejaVuSans-33"/>
       <use x="127.24609375" xlink:href="#DejaVuSans-2e"/>
       <use x="159.033203125" xlink:href="#DejaVuSans-34"/>
      </g>
     </g>
    </g>
    <g id="xtick_6">
     <g id="line2d_18">
      <path clip-path="url(#ped09f2dd41)" d="
M1119.06 667.04
L1119.06 17.46" style="fill:none;stroke:#808080;stroke-dasharray:1.000000,3.000000;stroke-dashoffset:0.0;stroke-linecap:butt;stroke-width:0.5;"/>
     </g>
     <g id="line2d_19">
      <g>
       <use style="stroke:#000000;stroke-linecap:butt;stroke-width:0.5;" x="1119.06442574" xlink:href="#mcb557df647" y="667.04"/>
      </g>
     </g>
     <g id="line2d_20">
      <g>
       <use style="stroke:#000000;stroke-linecap:butt;stroke-width:0.5;" x="1119.06442574" xlink:href="#mdad270ee8e" y="17.46"/>
      </g>
     </g>
     <g id="text_6">
      <!-- 43.5 -->
      <defs>
       <path d="
M10.7969 72.9062
L49.5156 72.9062
L49.5156 64.5938
L19.8281 64.5938
L19.8281 46.7344
Q21.9688 47.4688 24.1094 47.8281
Q26.2656 48.1875 28.4219 48.1875
Q40.625 48.1875 47.75 41.5
Q54.8906 34.8125 54.8906 23.3906
Q54.8906 11.625 47.5625 5.09375
Q40.2344 -1.42188 26.9062 -1.42188
Q22.3125 -1.42188 17.5469 -0.640625
Q12.7969 0.140625 7.71875 1.70312
L7.71875 11.625
Q12.1094 9.23438 16.7969 8.0625
Q21.4844 6.89062 26.7031 6.89062
Q35.1562 6.89062 40.0781 11.3281
Q45.0156 15.7656 45.0156 23.3906
Q45.0156 31 40.0781 35.4375
Q35.1562 39.8906 26.7031 39.8906
Q22.75 39.8906 18.8125 39.0156
Q14.8906 38.1406 10.7969 36.2812
z
" id="DejaVuSans-35"/>
      </defs>
      <g transform="translate(1106.52255074 679.94625)scale(0.12 -0.12)">
       <use xlink:href="#DejaVuSans-34"/>
       <use x="63.623046875" xlink:href="#DejaVuSans-33"/>
       <use x="127.24609375" xlink:href="#DejaVuSans-2e"/>
       <use x="159.033203125" xlink:href="#DejaVuSans-35"/>
      </g>
     </g>
    </g>
   </g>
   <g id="matplotlib.axis_2">
    <g id="ytick_1">
     <g id="line2d_21">
      <path clip-path="url(#ped09f2dd41)" d="
M34.5381 581.128
L1119.77 581.128" style="fill:none;stroke:#808080;stroke-dasharray:1.000000,3.000000;stroke-dashoffset:0.0;stroke-linecap:butt;stroke-width:0.5;"/>
     </g>
     <g id="line2d_22">
      <defs>
       <path d="
M0 0
L4 0" id="mc8fcea1516" style="stroke:#000000;stroke-linecap:butt;stroke-width:0.5;"/>
      </defs>
      <g>
       <use style="stroke:#000000;stroke-linecap:butt;stroke-width:0.5;" x="34.538125" xlink:href="#mc8fcea1516" y="581.128013918"/>
      </g>
     </g>
     <g id="line2d_23">
      <defs>
       <path d="
M0 0
L-4 0" id="m0d5b0a6425" style="stroke:#000000;stroke-linecap:butt;stroke-width:0.5;"/>
      </defs>
      <g>
       <use style="stroke:#000000;stroke-linecap:butt;stroke-width:0.5;" x="1119.76734375" xlink:href="#m0d5b0a6425" y="581.128013918"/>
      </g>
     </g>
     <g id="text_7">
      <!-- −1500 -->
      <defs>
       <path d="
M10.5938 35.5
L73.1875 35.5
L73.1875 27.2031
L10.5938 27.2031
z
" id="DejaVuSans-2212"/>
      </defs>
      <g transform="translate(-7.989375 585.495826418)scale(0.12 -0.12)">
       <use xlink:href="#DejaVuSans-2212"/>
       <use x="83.7890625" xlink:href="#DejaVuSans-31"/>
       <use x="147.412109375" xlink:href="#DejaVuSans-35"/>
       <use x="211.03515625" xlink:href="#DejaVuSans-30"/>
       <use x="274.658203125" xlink:href="#DejaVuSans-30"/>
      </g>
     </g>
    </g>
    <g id="ytick_2">
     <g id="line2d_24">
      <path clip-path="url(#ped09f2dd41)" d="
M34.5381 450.946
L1119.77 450.946" style="fill:none;stroke:#808080;stroke-dasharray:1.000000,3.000000;stroke-dashoffset:0.0;stroke-linecap:butt;stroke-width:0.5;"/>
     </g>
     <g id="line2d_25">
      <g>
       <use style="stroke:#000000;stroke-linecap:butt;stroke-width:0.5;" x="34.538125" xlink:href="#mc8fcea1516" y="450.946318867"/>
      </g>
     </g>
     <g id="line2d_26">
      <g>
       <use style="stroke:#000000;stroke-linecap:butt;stroke-width:0.5;" x="1119.76734375" xlink:href="#m0d5b0a6425" y="450.946318867"/>
      </g>
     </g>
     <g id="text_8">
      <!-- −1000 -->
      <g transform="translate(-7.989375 455.314131367)scale(0.12 -0.12)">
       <use xlink:href="#DejaVuSans-2212"/>
       <use x="83.7890625" xlink:href="#DejaVuSans-31"/>
       <use x="147.412109375" xlink:href="#DejaVuSans-30"/>
       <use x="211.03515625" xlink:href="#DejaVuSans-30"/>
       <use x="274.658203125" xlink:href="#DejaVuSans-30"/>
      </g>
     </g>
    </g>
    <g id="ytick_3">
     <g id="line2d_27">
      <path clip-path="url(#ped09f2dd41)" d="
M34.5381 320.765
L1119.77 320.765" style="fill:none;stroke:#808080;stroke-dasharray:1.000000,3.000000;stroke-dashoffset:0.0;stroke-linecap:butt;stroke-width:0.5;"/>
     </g>
     <g id="line2d_28">
      <g>
       <use style="stroke:#000000;stroke-linecap:butt;stroke-width:0.5;" x="34.538125" xlink:href="#mc8fcea1516" y="320.764623816"/>
      </g>
     </g>
     <g id="line2d_29">
      <g>
       <use style="stroke:#000000;stroke-linecap:butt;stroke-width:0.5;" x="1119.76734375" xlink:href="#m0d5b0a6425" y="320.764623816"/>
      </g>
     </g>
     <g id="text_9">
      <!-- −500 -->
      <g transform="translate(-0.354375 325.132436316)scale(0.12 -0.12)">
       <use xlink:href="#DejaVuSans-2212"/>
       <use x="83.7890625" xlink:href="#DejaVuSans-35"/>
       <use x="147.412109375" xlink:href="#DejaVuSans-30"/>
       <use x="211.03515625" xlink:href="#DejaVuSans-30"/>
      </g>
     </g>
    </g>
    <g id="ytick_4">
     <g id="line2d_30">
      <path clip-path="url(#ped09f2dd41)" d="
M34.5381 190.583
L1119.77 190.583" style="fill:none;stroke:#808080;stroke-dasharray:1.000000,3.000000;stroke-dashoffset:0.0;stroke-linecap:butt;stroke-width:0.5;"/>
     </g>
     <g id="line2d_31">
      <g>
       <use style="stroke:#000000;stroke-linecap:butt;stroke-width:0.5;" x="34.538125" xlink:href="#mc8fcea1516" y="190.582928765"/>
      </g>
     </g>
     <g id="line2d_32">
      <g>
       <use style="stroke:#000000;stroke-linecap:butt;stroke-width:0.5;" x="1119.76734375" xlink:href="#m0d5b0a6425" y="190.582928765"/>
      </g>
     </g>
     <g id="text_10">
      <!-- 0 -->
      <g transform="translate(24.49125 194.950741265)scale(0.12 -0.12)">
       <use xlink:href="#DejaVuSans-30"/>
      </g>
     </g>
    </g>
    <g id="ytick_5">
     <g id="line2d_33">
      <path clip-path="url(#ped09f2dd41)" d="
M34.5381 60.4012
L1119.77 60.4012" style="fill:none;stroke:#808080;stroke-dasharray:1.000000,3.000000;stroke-dashoffset:0.0;stroke-linecap:butt;stroke-width:0.5;"/>
     </g>
     <g id="line2d_34">
      <g>
       <use style="stroke:#000000;stroke-linecap:butt;stroke-width:0.5;" x="34.538125" xlink:href="#mc8fcea1516" y="60.401233714"/>
      </g>
     </g>
     <g id="line2d_35">
      <g>
       <use style="stroke:#000000;stroke-linecap:butt;stroke-width:0.5;" x="1119.76734375" xlink:href="#m0d5b0a6425" y="60.401233714"/>
      </g>
     </g>
     <g id="text_11">
      <!-- 500 -->
      <g transform="translate(9.35625 64.769046214)scale(0.12 -0.12)">
       <use xlink:href="#DejaVuSans-35"/>
       <use x="63.623046875" xlink:href="#DejaVuSans-30"/>
       <use x="127.24609375" xlink:href="#DejaVuSans-30"/>
      </g>
     </g>
    </g>
   </g>
   <g id="patch_3">
    <path d="
M34.5381 17.46
L1119.77 17.46" style="fill:none;stroke:#000000;"/>
   </g>
   <g id="patch_4">
    <path d="
M1119.77 667.04
L1119.77 17.46" style="fill:none;stroke:#000000;"/>
   </g>
   <g id="patch_5">
    <path d="
M34.5381 667.04
L1119.77 667.04" style="fill:none;stroke:#000000;"/>
   </g>
   <g id="patch_6">
    <path d="
M34.5381 667.04
L34.5381 17.46" style="fill:none;stroke:#000000;"/>
   </g>
   <g id="legend_1">
    <g id="patch_7">
     <path d="
M41.7381 72.054
L506.127 72.054
L506.127 24.66
L41.7381 24.66
L41.7381 72.054
z
" style="fill:#ffffff;stroke:#000000;"/>
    </g>
    <g id="line2d_36">
     <path d="
M51.8181 36.3218
L71.9781 36.3218" style="fill:none;stroke:#ff0000;"/>
    </g>
    <g id="line2d_37"/>
    <g id="text_12">
     <!-- /Vuzix_Headtracker/FilteredData/LBW_angular_velocity[0] -->
     <defs>
      <path d="
M8.59375 75.9844
L29.2969 75.9844
L29.2969 69
L17.5781 69
L17.5781 -6.20312
L29.2969 -6.20312
L29.2969 -13.1875
L8.59375 -13.1875
z
" id="DejaVuSans-5b"/>
      <path d="
M5.51562 54.6875
L48.1875 54.6875
L48.1875 46.4844
L14.4062 7.17188
L48.1875 7.17188
L48.1875 0
L4.29688 0
L4.29688 8.20312
L38.0938 47.5156
L5.51562 47.5156
z
" id="DejaVuSans-7a"/>
      <path d="
M50.9844 -16.6094
L50.9844 -23.5781
L-0.984375 -23.5781
L-0.984375 -16.6094
z
" id="DejaVuSans-5f"/>
      <path d="
M30.4219 75.9844
L30.4219 -13.1875
L9.71875 -13.1875
L9.71875 -6.20312
L21.3906 -6.20312
L21.3906 69
L9.71875 69
L9.71875 75.9844
z
" id="DejaVuSans-5d"/>
      <path d="
M19.6719 64.7969
L19.6719 8.10938
L31.5938 8.10938
Q46.6875 8.10938 53.6875 14.9375
Q60.6875 21.7812 60.6875 36.5312
Q60.6875 51.1719 53.6875 57.9844
Q46.6875 64.7969 31.5938 64.7969
z

M9.8125 72.9062
L30.0781 72.9062
Q51.2656 72.9062 61.1719 64.0938
Q71.0938 55.2812 71.0938 36.5312
Q71.0938 17.6719 61.125 8.82812
Q51.1719 0 30.0781 0
L9.8125 0
z
" id="DejaVuSans-44"/>
      <path d="
M9.8125 72.9062
L51.7031 72.9062
L51.7031 64.5938
L19.6719 64.5938
L19.6719 43.1094
L48.5781 43.1094
L48.5781 34.8125
L19.6719 34.8125
L19.6719 0
L9.8125 0
z
" id="DejaVuSans-46"/>
      <path d="
M19.6719 34.8125
L19.6719 8.10938
L35.5 8.10938
Q43.4531 8.10938 47.2812 11.4062
Q51.125 14.7031 51.125 21.4844
Q51.125 28.3281 47.2812 31.5625
Q43.4531 34.8125 35.5 34.8125
z

M19.6719 64.7969
L19.6719 42.8281
L34.2812 42.8281
Q41.5 42.8281 45.0312 45.5312
Q48.5781 48.25 48.5781 53.8125
Q48.5781 59.3281 45.0312 62.0625
Q41.5 64.7969 34.2812 64.7969
z

M9.8125 72.9062
L35.0156 72.9062
Q46.2969 72.9062 52.3906 68.2188
Q58.5 63.5312 58.5 54.8906
Q58.5 48.1875 55.375 44.2344
Q52.25 40.2812 46.1875 39.3125
Q53.4688 37.75 57.5 32.7812
Q61.5312 27.8281 61.5312 20.4062
Q61.5312 10.6406 54.8906 5.3125
Q48.25 0 35.9844 0
L9.8125 0
z
" id="DejaVuSans-42"/>
      <path d="
M9.42188 54.6875
L18.4062 54.6875
L18.4062 0
L9.42188 0
z

M9.42188 75.9844
L18.4062 75.9844
L18.4062 64.5938
L9.42188 64.5938
z
" id="DejaVuSans-69"/>
      <path d="
M45.4062 27.9844
Q45.4062 37.75 41.375 43.1094
Q37.3594 48.4844 30.0781 48.4844
Q22.8594 48.4844 18.8281 43.1094
Q14.7969 37.75 14.7969 27.9844
Q14.7969 18.2656 18.8281 12.8906
Q22.8594 7.51562 30.0781 7.51562
Q37.3594 7.51562 41.375 12.8906
Q45.4062 18.2656 45.4062 27.9844
M54.3906 6.78125
Q54.3906 -7.17188 48.1875 -13.9844
Q42 -20.7969 29.2031 -20.7969
Q24.4688 -20.7969 20.2656 -20.0938
Q16.0625 -19.3906 12.1094 -17.9219
L12.1094 -9.1875
Q16.0625 -11.3281 19.9219 -12.3438
Q23.7812 -13.375 27.7812 -13.375
Q36.625 -13.375 41.0156 -8.76562
Q45.4062 -4.15625 45.4062 5.17188
L45.4062 9.625
Q42.625 4.78125 38.2812 2.39062
Q33.9375 0 27.875 0
Q17.8281 0 11.6719 7.65625
Q5.51562 15.3281 5.51562 27.9844
Q5.51562 40.6719 11.6719 48.3281
Q17.8281 56 27.875 56
Q33.9375 56 38.2812 53.6094
Q42.625 51.2188 45.4062 46.3906
L45.4062 54.6875
L54.3906 54.6875
z
" id="DejaVuSans-67"/>
      <path d="
M45.4062 46.3906
L45.4062 75.9844
L54.3906 75.9844
L54.3906 0
L45.4062 0
L45.4062 8.20312
Q42.5781 3.32812 38.25 0.953125
Q33.9375 -1.42188 27.875 -1.42188
Q17.9688 -1.42188 11.7344 6.48438
Q5.51562 14.4062 5.51562 27.2969
Q5.51562 40.1875 11.7344 48.0938
Q17.9688 56 27.875 56
Q33.9375 56 38.25 53.625
Q42.5781 51.2656 45.4062 46.3906
M14.7969 27.2969
Q14.7969 17.3906 18.875 11.75
Q22.9531 6.10938 30.0781 6.10938
Q37.2031 6.10938 41.2969 11.75
Q45.4062 17.3906 45.4062 27.2969
Q45.4062 37.2031 41.2969 42.8438
Q37.2031 48.4844 30.0781 48.4844
Q22.9531 48.4844 18.875 42.8438
Q14.7969 37.2031 14.7969 27.2969" id="DejaVuSans-64"/>
      <path d="
M56.2031 29.5938
L56.2031 25.2031
L14.8906 25.2031
Q15.4844 15.9219 20.4844 11.0625
Q25.4844 6.20312 34.4219 6.20312
Q39.5938 6.20312 44.4531 7.46875
Q49.3125 8.73438 54.1094 11.2812
L54.1094 2.78125
Q49.2656 0.734375 44.1875 -0.34375
Q39.1094 -1.42188 33.8906 -1.42188
Q20.7969 -1.42188 13.1562 6.1875
Q5.51562 13.8125 5.51562 26.8125
Q5.51562 40.2344 12.7656 48.1094
Q20.0156 56 32.3281 56
Q43.3594 56 49.7812 48.8906
Q56.2031 41.7969 56.2031 29.5938
M47.2188 32.2344
Q47.125 39.5938 43.0938 43.9844
Q39.0625 48.3906 32.4219 48.3906
Q24.9062 48.3906 20.3906 44.1406
Q15.875 39.8906 15.1875 32.1719
z
" id="DejaVuSans-65"/>
      <path d="
M9.8125 72.9062
L19.6719 72.9062
L19.6719 43.0156
L55.5156 43.0156
L55.5156 72.9062
L65.375 72.9062
L65.375 0
L55.5156 0
L55.5156 34.7188
L19.6719 34.7188
L19.6719 0
L9.8125 0
z
" id="DejaVuSans-48"/>
      <path d="
M48.7812 52.5938
L48.7812 44.1875
Q44.9688 46.2969 41.1406 47.3438
Q37.3125 48.3906 33.4062 48.3906
Q24.6562 48.3906 19.8125 42.8438
Q14.9844 37.3125 14.9844 27.2969
Q14.9844 17.2812 19.8125 11.7344
Q24.6562 6.20312 33.4062 6.20312
Q37.3125 6.20312 41.1406 7.25
Q44.9688 8.29688 48.7812 10.4062
L48.7812 2.09375
Q45.0156 0.34375 40.9844 -0.53125
Q36.9688 -1.42188 32.4219 -1.42188
Q20.0625 -1.42188 12.7812 6.34375
Q5.51562 14.1094 5.51562 27.2969
Q5.51562 40.6719 12.8594 48.3281
Q20.2188 56 33.0156 56
Q37.1562 56 41.1094 55.1406
Q45.0625 54.2969 48.7812 52.5938" id="DejaVuSans-63"/>
      <path d="
M34.2812 27.4844
Q23.3906 27.4844 19.1875 25
Q14.9844 22.5156 14.9844 16.5
Q14.9844 11.7188 18.1406 8.90625
Q21.2969 6.10938 26.7031 6.10938
Q34.1875 6.10938 38.7031 11.4062
Q43.2188 16.7031 43.2188 25.4844
L43.2188 27.4844
z

M52.2031 31.2031
L52.2031 0
L43.2188 0
L43.2188 8.29688
Q40.1406 3.32812 35.5469 0.953125
Q30.9531 -1.42188 24.3125 -1.42188
Q15.9219 -1.42188 10.9531 3.29688
Q6 8.01562 6 15.9219
Q6 25.1406 12.1719 29.8281
Q18.3594 34.5156 30.6094 34.5156
L43.2188 34.5156
L43.2188 35.4062
Q43.2188 41.6094 39.1406 45
Q35.0625 48.3906 27.6875 48.3906
Q23 48.3906 18.5469 47.2656
Q14.1094 46.1406 10.0156 43.8906
L10.0156 52.2031
Q14.9375 54.1094 19.5781 55.0469
Q24.2188 56 28.6094 56
Q40.4844 56 46.3438 49.8438
Q52.2031 43.7031 52.2031 31.2031" id="DejaVuSans-61"/>
      <path d="
M25.3906 72.9062
L33.6875 72.9062
L8.29688 -9.28125
L0 -9.28125
z
" id="DejaVuSans-2f"/>
      <path d="
M9.8125 72.9062
L19.6719 72.9062
L19.6719 8.29688
L55.1719 8.29688
L55.1719 0
L9.8125 0
z
" id="DejaVuSans-4c"/>
      <path d="
M30.6094 48.3906
Q23.3906 48.3906 19.1875 42.75
Q14.9844 37.1094 14.9844 27.2969
Q14.9844 17.4844 19.1562 11.8438
Q23.3438 6.20312 30.6094 6.20312
Q37.7969 6.20312 41.9844 11.8594
Q46.1875 17.5312 46.1875 27.2969
Q46.1875 37.0156 41.9844 42.7031
Q37.7969 48.3906 30.6094 48.3906
M30.6094 56
Q42.3281 56 49.0156 48.375
Q55.7188 40.7656 55.7188 27.2969
Q55.7188 13.875 49.0156 6.21875
Q42.3281 -1.42188 30.6094 -1.42188
Q18.8438 -1.42188 12.1719 6.21875
Q5.51562 13.875 5.51562 27.2969
Q5.51562 40.7656 12.1719 48.375
Q18.8438 56 30.6094 56" id="DejaVuSans-6f"/>
      <path d="
M54.8906 33.0156
L54.8906 0
L45.9062 0
L45.9062 32.7188
Q45.9062 40.4844 42.875 44.3281
Q39.8438 48.1875 33.7969 48.1875
Q26.5156 48.1875 22.3125 43.5469
Q18.1094 38.9219 18.1094 30.9062
L18.1094 0
L9.07812 0
L9.07812 54.6875
L18.1094 54.6875
L18.1094 46.1875
Q21.3438 51.125 25.7031 53.5625
Q30.0781 56 35.7969 56
Q45.2188 56 50.0469 50.1719
Q54.8906 44.3438 54.8906 33.0156" id="DejaVuSans-6e"/>
      <path d="
M9.07812 75.9844
L18.1094 75.9844
L18.1094 31.1094
L44.9219 54.6875
L56.3906 54.6875
L27.3906 29.1094
L57.625 0
L45.9062 0
L18.1094 26.7031
L18.1094 0
L9.07812 0
z
" id="DejaVuSans-6b"/>
      <path d="
M9.42188 75.9844
L18.4062 75.9844
L18.4062 0
L9.42188 0
z
" id="DejaVuSans-6c"/>
      <path d="
M32.1719 -5.07812
Q28.375 -14.8438 24.75 -17.8125
Q21.1406 -20.7969 15.0938 -20.7969
L7.90625 -20.7969
L7.90625 -13.2812
L13.1875 -13.2812
Q16.8906 -13.2812 18.9375 -11.5156
Q21 -9.76562 23.4844 -3.21875
L25.0938 0.875
L2.98438 54.6875
L12.5 54.6875
L29.5938 11.9219
L46.6875 54.6875
L56.2031 54.6875
z
" id="DejaVuSans-79"/>
      <path d="
M54.8906 54.6875
L35.1094 28.0781
L55.9062 0
L45.3125 0
L29.3906 21.4844
L13.4844 0
L2.875 0
L24.125 28.6094
L4.6875 54.6875
L15.2812 54.6875
L29.7812 35.2031
L44.2812 54.6875
z
" id="DejaVuSans-78"/>
      <path d="
M8.5 21.5781
L8.5 54.6875
L17.4844 54.6875
L17.4844 21.9219
Q17.4844 14.1562 20.5 10.2656
Q23.5312 6.39062 29.5938 6.39062
Q36.8594 6.39062 41.0781 11.0312
Q45.3125 15.6719 45.3125 23.6875
L45.3125 54.6875
L54.2969 54.6875
L54.2969 0
L45.3125 0
L45.3125 8.40625
Q42.0469 3.42188 37.7188 1
Q33.4062 -1.42188 27.6875 -1.42188
Q18.2656 -1.42188 13.375 4.4375
Q8.5 10.2969 8.5 21.5781
M31.1094 56
z
" id="DejaVuSans-75"/>
      <path d="
M18.3125 70.2188
L18.3125 54.6875
L36.8125 54.6875
L36.8125 47.7031
L18.3125 47.7031
L18.3125 18.0156
Q18.3125 11.3281 20.1406 9.42188
Q21.9688 7.51562 27.5938 7.51562
L36.8125 7.51562
L36.8125 0
L27.5938 0
Q17.1875 0 13.2344 3.875
Q9.28125 7.76562 9.28125 18.0156
L9.28125 47.7031
L2.6875 47.7031
L2.6875 54.6875
L9.28125 54.6875
L9.28125 70.2188
z
" id="DejaVuSans-74"/>
      <path d="
M2.98438 54.6875
L12.5 54.6875
L29.5938 8.79688
L46.6875 54.6875
L56.2031 54.6875
L35.6875 0
L23.4844 0
z
" id="DejaVuSans-76"/>
      <path d="
M3.32812 72.9062
L13.2812 72.9062
L28.6094 11.2812
L43.8906 72.9062
L54.9844 72.9062
L70.3125 11.2812
L85.5938 72.9062
L95.6094 72.9062
L77.2969 0
L64.8906 0
L49.5156 63.2812
L33.9844 0
L21.5781 0
z
" id="DejaVuSans-57"/>
      <path d="
M28.6094 0
L0.78125 72.9062
L11.0781 72.9062
L34.1875 11.5312
L57.3281 72.9062
L67.5781 72.9062
L39.7969 0
z
" id="DejaVuSans-56"/>
      <path d="
M41.1094 46.2969
Q39.5938 47.1719 37.8125 47.5781
Q36.0312 48 33.8906 48
Q26.2656 48 22.1875 43.0469
Q18.1094 38.0938 18.1094 28.8125
L18.1094 0
L9.07812 0
L9.07812 54.6875
L18.1094 54.6875
L18.1094 46.1875
Q20.9531 51.1719 25.4844 53.5781
Q30.0312 56 36.5312 56
Q37.4531 56 38.5781 55.875
Q39.7031 55.7656 41.0625 55.5156
z
" id="DejaVuSans-72"/>
     </defs>
     <g transform="translate(87.818125 41.36175)scale(0.144 -0.144)">
      <use xlink:href="#DejaVuSans-2f"/>
      <use x="33.69140625" xlink:href="#DejaVuSans-56"/>
      <use x="95.349609375" xlink:href="#DejaVuSans-75"/>
      <use x="158.728515625" xlink:href="#DejaVuSans-7a"/>
      <use x="211.21875" xlink:href="#DejaVuSans-69"/>
      <use x="239.001953125" xlink:href="#DejaVuSans-78"/>
      <use x="298.181640625" xlink:href="#DejaVuSans-5f"/>
      <use x="348.181640625" xlink:href="#DejaVuSans-48"/>
      <use x="423.376953125" xlink:href="#DejaVuSans-65"/>
      <use x="484.900390625" xlink:href="#DejaVuSans-61"/>
      <use x="546.1796875" xlink:href="#DejaVuSans-64"/>
      <use x="609.65625" xlink:href="#DejaVuSans-74"/>
      <use x="648.865234375" xlink:href="#DejaVuSans-72"/>
      <use x="689.978515625" xlink:href="#DejaVuSans-61"/>
      <use x="751.2578125" xlink:href="#DejaVuSans-63"/>
      <use x="806.23828125" xlink:href="#DejaVuSans-6b"/>
      <use x="860.5234375" xlink:href="#DejaVuSans-65"/>
      <use x="922.046875" xlink:href="#DejaVuSans-72"/>
      <use x="963.16015625" xlink:href="#DejaVuSans-2f"/>
      <use x="996.8515625" xlink:href="#DejaVuSans-46"/>
      <use x="1047.12109375" xlink:href="#DejaVuSans-69"/>
      <use x="1074.90429688" xlink:href="#DejaVuSans-6c"/>
      <use x="1102.6875" xlink:href="#DejaVuSans-74"/>
      <use x="1141.89648438" xlink:href="#DejaVuSans-65"/>
      <use x="1203.41992188" xlink:href="#DejaVuSans-72"/>
      <use x="1242.28320312" xlink:href="#DejaVuSans-65"/>
      <use x="1303.80664062" xlink:href="#DejaVuSans-64"/>
      <use x="1367.28320312" xlink:href="#DejaVuSans-44"/>
      <use x="1444.28515625" xlink:href="#DejaVuSans-61"/>
      <use x="1505.56445312" xlink:href="#DejaVuSans-74"/>
      <use x="1544.7734375" xlink:href="#DejaVuSans-61"/>
      <use x="1606.05273438" xlink:href="#DejaVuSans-2f"/>
      <use x="1639.74414062" xlink:href="#DejaVuSans-4c"/>
      <use x="1695.45703125" xlink:href="#DejaVuSans-42"/>
      <use x="1760.43554688" xlink:href="#DejaVuSans-57"/>
      <use x="1859.3125" xlink:href="#DejaVuSans-5f"/>
      <use x="1909.3125" xlink:href="#DejaVuSans-61"/>
      <use x="1970.59179688" xlink:href="#DejaVuSans-6e"/>
      <use x="2033.97070312" xlink:href="#DejaVuSans-67"/>
      <use x="2097.44726562" xlink:href="#DejaVuSans-75"/>
      <use x="2160.82617188" xlink:href="#DejaVuSans-6c"/>
      <use x="2188.609375" xlink:href="#DejaVuSans-61"/>
      <use x="2249.88867188" xlink:href="#DejaVuSans-72"/>
      <use x="2291.00195312" xlink:href="#DejaVuSans-5f"/>
      <use x="2341.00195312" xlink:href="#DejaVuSans-76"/>
      <use x="2400.18164062" xlink:href="#DejaVuSans-65"/>
      <use x="2461.70507812" xlink:href="#DejaVuSans-6c"/>
      <use x="2489.48828125" xlink:href="#DejaVuSans-6f"/>
      <use x="2550.66992188" xlink:href="#DejaVuSans-63"/>
      <use x="2605.65039062" xlink:href="#DejaVuSans-69"/>
      <use x="2633.43359375" xlink:href="#DejaVuSans-74"/>
      <use x="2672.64257812" xlink:href="#DejaVuSans-79"/>
      <use x="2731.82226562" xlink:href="#DejaVuSans-5b"/>
      <use x="2770.8359375" xlink:href="#DejaVuSans-30"/>
      <use x="2834.45898438" xlink:href="#DejaVuSans-5d"/>
     </g>
    </g>
    <g id="line2d_38">
     <path d="
M51.8181 57.8588
L71.9781 57.8588" style="fill:none;stroke:#0000ff;"/>
    </g>
    <g id="line2d_39"/>
    <g id="text_13">
     <!-- /Vuzix_Headtracker/RawData/LBW_angular_velocity[0] -->
     <defs>
      <path d="
M44.3906 34.1875
Q47.5625 33.1094 50.5625 29.5938
Q53.5625 26.0781 56.5938 19.9219
L66.6094 0
L56 0
L46.6875 18.7031
Q43.0625 26.0312 39.6719 28.4219
Q36.2812 30.8125 30.4219 30.8125
L19.6719 30.8125
L19.6719 0
L9.8125 0
L9.8125 72.9062
L32.0781 72.9062
Q44.5781 72.9062 50.7344 67.6719
Q56.8906 62.4531 56.8906 51.9062
Q56.8906 45.0156 53.6875 40.4688
Q50.4844 35.9375 44.3906 34.1875
M19.6719 64.7969
L19.6719 38.9219
L32.0781 38.9219
Q39.2031 38.9219 42.8438 42.2188
Q46.4844 45.5156 46.4844 51.9062
Q46.4844 58.2969 42.8438 61.5469
Q39.2031 64.7969 32.0781 64.7969
z
" id="DejaVuSans-52"/>
      <path d="
M4.20312 54.6875
L13.1875 54.6875
L24.4219 12.0156
L35.5938 54.6875
L46.1875 54.6875
L57.4219 12.0156
L68.6094 54.6875
L77.5938 54.6875
L63.2812 0
L52.6875 0
L40.9219 44.8281
L29.1094 0
L18.5 0
z
" id="DejaVuSans-77"/>
     </defs>
     <g transform="translate(87.818125 62.89875)scale(0.144 -0.144)">
      <use xlink:href="#DejaVuSans-2f"/>
      <use x="33.69140625" xlink:href="#DejaVuSans-56"/>
      <use x="95.349609375" xlink:href="#DejaVuSans-75"/>
      <use x="158.728515625" xlink:href="#DejaVuSans-7a"/>
      <use x="211.21875" xlink:href="#DejaVuSans-69"/>
      <use x="239.001953125" xlink:href="#DejaVuSans-78"/>
      <use x="298.181640625" xlink:href="#DejaVuSans-5f"/>
      <use x="348.181640625" xlink:href="#DejaVuSans-48"/>
      <use x="423.376953125" xlink:href="#DejaVuSans-65"/>
      <use x="484.900390625" xlink:href="#DejaVuSans-61"/>
      <use x="546.1796875" xlink:href="#DejaVuSans-64"/>
      <use x="609.65625" xlink:href="#DejaVuSans-74"/>
      <use x="648.865234375" xlink:href="#DejaVuSans-72"/>
      <use x="689.978515625" xlink:href="#DejaVuSans-61"/>
      <use x="751.2578125" xlink:href="#DejaVuSans-63"/>
      <use x="806.23828125" xlink:href="#DejaVuSans-6b"/>
      <use x="860.5234375" xlink:href="#DejaVuSans-65"/>
      <use x="922.046875" xlink:href="#DejaVuSans-72"/>
      <use x="963.16015625" xlink:href="#DejaVuSans-2f"/>
      <use x="996.8515625" xlink:href="#DejaVuSans-52"/>
      <use x="1064.08398438" xlink:href="#DejaVuSans-61"/>
      <use x="1125.36328125" xlink:href="#DejaVuSans-77"/>
      <use x="1207.15039062" xlink:href="#DejaVuSans-44"/>
      <use x="1284.15234375" xlink:href="#DejaVuSans-61"/>
      <use x="1345.43164062" xlink:href="#DejaVuSans-74"/>
      <use x="1384.640625" xlink:href="#DejaVuSans-61"/>
      <use x="1445.91992188" xlink:href="#DejaVuSans-2f"/>
      <use x="1479.61132812" xlink:href="#DejaVuSans-4c"/>
      <use x="1535.32421875" xlink:href="#DejaVuSans-42"/>
      <use x="1600.30273438" xlink:href="#DejaVuSans-57"/>
      <use x="1699.1796875" xlink:href="#DejaVuSans-5f"/>
      <use x="1749.1796875" xlink:href="#DejaVuSans-61"/>
      <use x="1810.45898438" xlink:href="#DejaVuSans-6e"/>
      <use x="1873.83789062" xlink:href="#DejaVuSans-67"/>
      <use x="1937.31445312" xlink:href="#DejaVuSans-75"/>
      <use x="2000.69335938" xlink:href="#DejaVuSans-6c"/>
      <use x="2028.4765625" xlink:href="#DejaVuSans-61"/>
      <use x="2089.75585938" xlink:href="#DejaVuSans-72"/>
      <use x="2130.86914062" xlink:href="#DejaVuSans-5f"/>
      <use x="2180.86914062" xlink:href="#DejaVuSans-76"/>
      <use x="2240.04882812" xlink:href="#DejaVuSans-65"/>
      <use x="2301.57226562" xlink:href="#DejaVuSans-6c"/>
      <use x="2329.35546875" xlink:href="#DejaVuSans-6f"/>
      <use x="2390.53710938" xlink:href="#DejaVuSans-63"/>
      <use x="2445.51757812" xlink:href="#DejaVuSans-69"/>
      <use x="2473.30078125" xlink:href="#DejaVuSans-74"/>
      <use x="2512.50976562" xlink:href="#DejaVuSans-79"/>
      <use x="2571.68945312" xlink:href="#DejaVuSans-5b"/>
      <use x="2610.703125" xlink:href="#DejaVuSans-30"/>
      <use x="2674.32617188" xlink:href="#DejaVuSans-5d"/>
     </g>
    </g>
   </g>
  </g>
 </g>
 <defs>
  <clipPath id="ped09f2dd41">
   <rect height="649.58" width="1085.22921875" x="34.538125" y="17.46"/>
  </clipPath>
 </defs>
</svg>
